HIERARCHY
ROOT pelvis
{
  OFFSET 0 100 0
  CHANNELS 6 Xposition Yposition Zposition Zrotation Xrotation Yrotation
  JOINT pelvis_right_femur
  {
    OFFSET -10.78128 -3.44521 -0.5502486
    CHANNELS 3 Zrotation Xrotation Yrotation
    JOINT right_femur_tibia
    {
      OFFSET -0.8047443 -44.0398 -0.1307829
      CHANNELS 3 Zrotation Xrotation Yrotation
      JOINT right_tibia_foot
      {
        OFFSET 3.006224 -47.83518 -5
        CHANNELS 3 Zrotation Xrotation Yrotation
        End Site
        {
          OFFSET 0 -5 15
        }
      }
    }
  }
  JOINT pelvis_left_femur
  {
    OFFSET 10.78128 -3.44521 -0.5502486
    CHANNELS 3 Zrotation Xrotation Yrotation
    JOINT left_femur_tibia
    {
      OFFSET 0.8047443 -44.0398 -0.1307829
      CHANNELS 3 Zrotation Xrotation Yrotation
      JOINT left_tibia_foot
      {
        OFFSET -4.370144 -48.10324 -4.275266
        CHANNELS 3 Zrotation Xrotation Yrotation
        End Site
        {
          OFFSET 0 -5 15
        }
      }
    }
  }
  JOINT pelvis_spine1
  {
    OFFSET 0 6.468898 -3.129235
    CHANNELS 3 Zrotation Xrotation Yrotation
    JOINT spine1
    {
      OFFSET 0 23.15396 4.99043
      CHANNELS 3 Zrotation Xrotation Yrotation
      JOINT spine2
      {
        OFFSET 0 20.79997 -5.064912
        CHANNELS 3 Zrotation Xrotation Yrotation
        JOINT neck
        {
          OFFSET 0 14.38658 9.616178
          CHANNELS 3 Zrotation Xrotation Yrotation
          End Site
          {
            OFFSET 0 20 0
          }
        }
      }
      JOINT right_manubrium
      {
        OFFSET -5.722621 16.35077 3.967754
        CHANNELS 3 Zrotation Xrotation Yrotation
        JOINT right_clavicle
        {
          OFFSET -13.16364 1.694482 -4.693211
          CHANNELS 3 Zrotation Xrotation Yrotation
          JOINT right_humerus
          {
            OFFSET -28.5034 -0.3100689 -2.792744
            CHANNELS 3 Zrotation Xrotation Yrotation
            JOINT right_radius
            {
              OFFSET -25.15693 0.02248979 -1.271978
              CHANNELS 3 Zrotation Xrotation Yrotation
              End Site
              {
                OFFSET -15 0 0
              }
            }
          }
        }
      }
      JOINT left_manubrium
      {
        OFFSET 5.722621 16.35077 3.967754
        CHANNELS 3 Zrotation Xrotation Yrotation
        JOINT left_clavicle
        {
          OFFSET 13.16364 1.694482 -4.693211
          CHANNELS 3 Zrotation Xrotation Yrotation
          JOINT left_humerus
          {
            OFFSET 29.39168 -1.063119 -2.237045
            CHANNELS 3 Zrotation Xrotation Yrotation
            JOINT left_radius
            {
              OFFSET 24.59957 -0.9528479 0.9047498
              CHANNELS 3 Zrotation Xrotation Yrotation
              End Site
              {
                OFFSET 15 -0 -0
              }
            }
          }
        }
      }
    }
  }
}
MOTION
Frames: 10
Frame Time: 0.0416666666667
0 103.5113 0 0.8400612 -2.023861 0.8663819 0.9893412 -16.56608 4.631559 -1.189645e-10 42.1433 1.926309e-10 -2.607887 -5.714841 -3.748249 -6.445171 8.463706 -17.02843 -8.309964e-10 0.005983889 -6.490998e-10 1.872577 -20.06263 20.82186 -3.708932 -1.547938 3.345227 1.276583 8.227488 -6.845147 1.425078 22.18096 7.465584 2.888837 -21.3235 9.341733 4.774803 -17.56791 10.73745 85.00622 32.01394 -15.84652 -2.864941e-11 6.008616e-11 15.56833 -15.60569 10.45205 8.931983 6.277434 -18.68996 -1.59606 -89.89933 26.31669 17.28926 -4.247532e-11 -5.189433e-11 -15.04678 2.797669 13.7145 9.810305
0.6711473 103.2787 3.796864 0.8806927 -1.831131 1.757371 0.9487882 -18.09553 4.652379 -1.107541e-10 42.87253 1.978131e-10 -2.597218 -5.506917 -3.880101 -6.60627 9.894702 -17.48257 -8.691695e-10 -0.9128996 -7.154309e-10 2.104534 -20.73307 20.97923 -3.824227 -1.583576 3.173506 1.36719 8.178729 -7.032096 1.413275 22.31189 7.589566 2.940893 -21.56228 9.502271 4.931555 -17.44332 10.75236 85.79336 32.36211 -16.57151 -2.808668e-11 6.447848e-11 15.28647 -15.34973 10.40747 8.770786 6.395436 -18.88194 -1.583966 -90.18759 26.62967 16.99413 -4.58666e-11 -5.361882e-11 -15.55399 2.875289 13.88898 9.812683
1.358995 103.0454 7.557226 0.8792598 -1.661414 2.675569 1.022809 -19.79646 4.59744 -8.840145e-11 42.81291 1.909322e-10 -2.690027 -5.231787 -4.029721 -6.682719 11.43985 -17.74733 -8.685361e-10 -0.9952805 -7.639324e-10 2.221894 -21.24935 20.91345 -3.860614 -1.613603 2.981324 1.477229 8.161188 -7.242446 1.401556 22.37938 7.668739 2.982427 -21.73324 9.595717 5.018235 -17.22479 10.75291 86.49743 32.55178 -17.40706 -2.553374e-11 6.733263e-11 14.78166 -15.06304 10.3814 8.532052 6.516754 -19.16339 -1.619362 -90.10558 26.79797 16.42484 -4.825999e-11 -5.308468e-11 -16.23853 3.066562 14.04195 9.641776
2.037458 102.8194 11.31072 0.8339901 -1.523856 3.591761 1.220522 -21.67266 4.470713 -5.185053e-11 41.93367 1.72111e-10 -2.896604 -4.892867 -4.19906 -6.677749 13.0923 -17.81965 -8.251395e-10 -0.1626932 -7.927214e-10 2.214196 -21.60813 20.62317 -3.81375 -1.639019 2.773278 1.608619 8.185771 -7.481767 1.390283 22.39806 7.705006 3.01604 -21.84777 9.624229 5.033525 -16.92386 10.74964 87.19135 32.57815 -18.3847 -2.089208e-11 6.847311e-11 14.05691 -14.76354 10.38437 8.222504 6.645414 -19.5562 -1.706348 -89.71937 26.80817 15.60065 -4.952717e-11 -5.014985e-11 -17.1199 3.381112 14.1811 9.293397
2.684274 102.608 15.08193 0.750767 -1.423895 4.47724 1.519767 -23.58395 4.282275 -5.313897e-12 40.27407 1.445773e-10 -3.194967 -4.505756 -4.370903 -6.597578 14.73719 -17.68586 -7.424686e-10 1.489652 -8.021479e-10 2.079078 -21.77051 20.10638 -3.685869 -1.6569 2.558312 1.750418 8.238351 -7.725612 1.38031 22.34082 7.688491 3.033411 -21.87511 9.575681 4.971899 -16.54067 10.72832 87.70063 32.4336 -19.37961 -1.451755e-11 6.778491e-11 13.14626 -14.44825 10.40222 7.850536 6.764782 -20.00769 -1.836427 -88.94442 26.64815 14.53661 -4.952525e-11 -4.507568e-11 -18.11677 3.792473 14.27891 8.7845
3.286207 102.4163 18.89164 0.6438158 -1.361782 5.310949 1.882839 -25.41954 4.061429 4.464054e-11 38.09499 1.138318e-10 -3.550495 -4.103463 -4.534828 -6.469851 16.28523 -17.40047 -6.336396e-10 3.706598 -7.987284e-10 1.852202 -21.76978 19.44433 -3.501258 -1.668621 2.351184 1.893193 8.312802 -7.961368 1.371846 22.23265 7.632835 3.03828 -21.83719 9.471134 4.854338 -16.11854 10.69822 88.05956 32.16539 -20.34144 -7.162388e-12 6.561576e-11 12.14322 -14.14336 10.43325 7.452771 6.871112 -20.48632 -1.993857 -87.94093 26.35088 13.35792 -4.845435e-11 -3.861565e-11 -19.15386 4.258685 14.33965 8.178769
3.837392 102.2475 22.76748 0.5229638 -1.352502 6.073253 2.297305 -27.04612 3.828723 9.377141e-11 35.54922 8.27432e-11 -3.950806 -3.72588 -4.683026 -6.306382 17.61001 -16.98615 -5.046124e-10 6.417381 -7.837597e-10 1.548617 -21.60816 18.70545 -3.270533 -1.675052 2.176168 2.029035 8.422138 -8.18119 1.365566 22.11279 7.54897 3.037139 -21.76256 9.327461 4.691435 -15.71508 10.68199 88.39015 31.79332 -21.26172 6.648496e-13 6.195432e-11 11.13954 -13.90525 10.49531 7.075054 6.964364 -20.99247 -2.172265 -86.93232 25.93012 12.2118 -4.626823e-11 -3.113364e-11 -20.18204 4.755206 14.3759 7.524423
4.347845 102.1012 26.72931 0.4119033 -1.392892 6.758014 2.704478 -28.29082 3.624927 1.350643e-10 33.09213 5.608033e-11 -4.340064 -3.430011 -4.802963 -6.140411 18.57155 -16.53877 -3.771824e-10 9.19107 -7.637283e-10 1.230724 -21.35502 18.03539 -3.036285 -1.678274 2.058224 2.143128 8.559226 -8.367464 1.361926 22.032 7.463182 3.038372 -21.697 9.184735 4.520342 -15.40867 10.69771 88.79705 31.39461 -22.07922 7.757973e-12 5.757314e-11 10.29582 -13.78257 10.59115 6.781863 7.042326 -21.48131 -2.345416 -86.20663 25.47893 11.3092 -4.346111e-11 -2.386396e-11 -21.08383 5.212977 14.40598 6.931119
4.835782 101.9748 30.79203 0.3222554 -1.488998 7.361642 3.077411 -28.97166 3.458487 1.657713e-10 30.87135 3.448766e-11 -4.690465 -3.251282 -4.879592 -5.972621 19.01503 -16.06502 -2.594386e-10 11.87058 -7.361824e-10 0.9119637 -20.99239 17.47939 -2.809856 -1.675716 2.016489 2.2217 8.717551 -8.495811 1.361958 21.99068 7.375425 3.039251 -21.63344 9.045334 4.345196 -15.23132 10.74386 89.21037 30.98344 -22.6924 1.354153e-11 5.261735e-11 9.693673 -13.8008 10.7184 6.605861 7.092971 -21.90609 -2.501392 -85.80484 25.0252 10.73595 -4.009664e-11 -1.726737e-11 -21.76277 5.592385 14.42048 6.444917
5.328257 101.864 34.97495 0.2648839 -1.661473 7.879343 3.402439 -28.85502 3.335767 1.833522e-10 28.99218 1.774228e-11 -4.98664 -3.239842 -4.897563 -5.792946 18.7255 -15.55458 -1.56226e-10 14.41393 -6.941549e-10 0.5922542 -20.47975 17.0882 -2.595174 -1.664453 2.082918 2.249758 8.907069 -8.542639 1.367344 22.00785 7.28583 3.04011 -21.57523 8.911995 4.1651 -15.23886 10.83325 89.64735 30.55975 -23.02415 1.751458e-11 4.696544e-11 9.43564 -14.02083 10.89171 6.597816 7.10655 -22.24179 -2.633315 -85.85923 24.5824 10.62377 -3.605181e-11 -1.159611e-11 -22.12756 5.860266 14.41836 6.112074
